<?xml version="1.0" standalone="no"?>
<!DOCTYPE svg PUBLIC "-//W3C//DTD SVG 20010904//EN"
 "http://www.w3.org/TR/2001/REC-SVG-20010904/DTD/svg10.dtd">
<svg version="1.0" xmlns="http://www.w3.org/2000/svg"
 width="640.000000pt" height="480.000000pt" viewBox="0 0 640.000000 480.000000"
 preserveAspectRatio="xMidYMid meet">

<g transform="translate(0.000000,480.000000) scale(0.100000,-0.100000)"
fill="#000000" stroke="none">
<path d="M0 4715 l0 -85 256 0 c167 0 253 -3 249 -10 -3 -5 -1 -10 4 -10 6 0
11 5 11 10 0 6 7 10 15 10 8 0 15 -6 15 -12 0 -10 2 -10 8 -1 6 10 245 12
1105 11 943 -1 1097 -3 1097 -15 0 -8 -8 -35 -19 -61 -40 -102 -71 -219 -90
-337 -17 -109 -31 -247 -31 -299 l0 -47 -27 26 c-15 14 -31 25 -35 25 -4 0 -4
7 -1 17 4 11 3 14 -5 9 -11 -7 -88 46 -105 72 -4 6 -15 12 -23 12 -9 0 -30 11
-48 25 -18 14 -38 25 -44 25 -7 0 -12 4 -12 10 0 5 -13 16 -29 25 -16 8 -35
20 -43 27 -7 8 -44 26 -81 42 -38 16 -71 35 -74 42 -3 8 -10 11 -15 8 -5 -4
-20 -2 -31 4 -114 57 -367 128 -542 152 -91 12 -344 12 -464 0 -129 -14 -409
-80 -463 -110 -10 -6 -22 -10 -28 -10 -23 0 -89 -35 -93 -50 -13 -51 37 -393
76 -525 79 -259 200 -492 356 -685 55 -67 213 -230 223 -230 5 0 8 99 8 220
l0 220 40 0 c38 0 40 -2 40 -29 l0 -30 66 35 c112 59 208 43 250 -42 16 -32
19 -61 19 -164 0 -114 -2 -128 -23 -163 -13 -21 -37 -44 -52 -52 -38 -19 -145
-19 -200 0 -23 8 -43 15 -45 15 -1 0 -2 -21 -3 -46 0 -34 5 -51 21 -67 12 -12
21 -25 19 -30 -1 -4 2 -6 6 -5 5 2 44 -20 88 -48 124 -80 355 -194 395 -194
10 0 20 -4 23 -8 3 -5 53 -22 111 -38 58 -16 105 -32 105 -36 0 -3 -24 -23
-52 -44 -29 -22 -75 -59 -102 -84 -31 -28 -51 -40 -53 -32 -3 6 -9 9 -15 6 -6
-4 -5 -9 3 -15 10 -6 9 -12 -6 -29 -10 -11 -25 -18 -32 -15 -8 3 -11 0 -8 -6
4 -5 -13 -31 -37 -57 -37 -41 -47 -47 -77 -44 -23 3 -31 0 -26 -7 4 -7 15 -9
26 -6 27 9 24 -6 -11 -43 -16 -18 -30 -38 -30 -44 0 -5 -7 -8 -14 -5 -11 4
-13 1 -9 -10 4 -11 2 -14 -5 -9 -7 4 -12 1 -12 -9 0 -8 -6 -18 -14 -21 -9 -3
-12 -13 -8 -27 5 -20 4 -20 -11 -8 -14 11 -18 11 -23 -3 -10 -25 -24 -19 -24
11 0 14 -3 24 -6 20 -9 -9 7 -88 17 -81 12 7 11 -7 -1 -26 -8 -13 -10 -12 -10
4 0 16 -6 18 -40 13 -22 -3 -40 -1 -40 4 0 5 -4 9 -10 9 -5 0 -10 -8 -10 -17
0 -15 -1 -15 -13 1 -12 16 -41 18 -430 16 -369 -1 -417 1 -417 15 0 11 -11 15
-40 15 -29 0 -40 -4 -40 -15 0 -13 -29 -15 -200 -15 l-200 0 0 -419 0 -419 43
-34 c95 -77 267 -187 267 -170 0 4 5 0 10 -8 10 -16 10 -16 14 27 1 7 5 13 9
12 5 0 24 11 43 26 77 59 201 38 258 -43 22 -32 26 -49 26 -110 0 -70 1 -72
28 -78 15 -3 38 -9 52 -14 63 -21 60 -23 38 27 -66 149 87 301 238 238 19 -8
40 -14 47 -12 6 1 12 -5 12 -13 0 -8 7 -14 14 -12 7 1 10 -2 6 -8 -4 -6 0 -21
8 -33 21 -32 29 -96 18 -135 -5 -18 -23 -50 -40 -71 l-30 -38 127 -12 c70 -7
136 -15 147 -18 12 -3 0 13 -32 43 -77 73 -93 137 -52 221 52 108 186 131 278
47 79 -70 76 -186 -6 -259 -13 -11 -23 -23 -23 -26 0 -6 93 6 130 16 14 4 42
11 62 16 l37 9 -19 43 c-34 75 -21 144 38 203 36 37 102 56 157 47 59 -9 130
-84 139 -145 l7 -46 54 30 c31 17 57 38 61 51 8 29 52 75 88 94 16 8 52 15 80
16 45 0 58 5 116 49 104 79 187 156 273 253 45 49 84 91 87 93 4 1 10 -48 14
-110 3 -62 15 -154 24 -205 16 -81 23 -96 55 -128 47 -47 63 -103 48 -168 -10
-46 -9 -53 30 -145 38 -90 92 -197 127 -250 l14 -22 -594 0 c-605 0 -850 6
-826 21 10 7 9 9 -4 9 -10 0 -18 -4 -18 -9 0 -4 -28 -6 -62 -3 -35 3 -124 6
-198 6 -102 1 -134 -2 -133 -12 2 -9 -134 -12 -642 -12 l-645 0 0 -85 0 -85
3200 0 3200 0 0 1456 c0 946 -4 1453 -10 1449 -5 -3 -17 -2 -26 3 -11 6 -13
11 -5 16 6 4 11 2 11 -4 0 -6 7 -4 17 5 13 13 13 19 4 25 -9 5 -10 10 -2 14 8
5 11 233 11 808 l0 800 -44 -3 c-24 -2 -42 -1 -39 4 2 4 22 7 44 7 l39 0 0
110 0 110 -3200 0 -3200 0 0 -85z m6080 -95 l-85 -6 123 -2 c76 -1 122 2 122
8 0 6 18 10 40 10 29 0 40 -4 40 -15 0 -12 -17 -15 -82 -17 -76 -1 -78 -2 -33
-8 l50 -7 -50 -3 -50 -3 45 -7 45 -7 -42 -1 c-31 -2 -43 -6 -43 -17 0 -19 -11
-19 -36 0 -11 8 -41 14 -71 15 -29 0 -53 5 -53 10 0 6 18 10 40 10 22 0 40 4
40 8 0 5 -54 9 -120 8 -91 0 -120 -3 -120 -13 0 -16 22 -17 37 -2 13 13 43 5
43 -11 0 -6 -8 -10 -17 -9 -34 3 -63 -1 -63 -9 0 -4 16 -9 37 -10 20 -2 40 -5
45 -8 4 -3 8 -1 8 3 0 5 34 8 75 8 58 0 75 -3 75 -14 0 -12 -20 -13 -120 -8
-77 5 -120 3 -120 -3 0 -6 -18 -10 -40 -10 -22 0 -40 -4 -40 -9 0 -5 9 -7 20
-4 11 3 20 0 20 -6 0 -7 22 -11 60 -11 33 0 60 -4 60 -10 0 -5 -18 -10 -40
-10 -29 0 -40 -4 -40 -15 0 -11 -11 -15 -40 -15 -36 0 -40 -2 -40 -25 0 -21
-5 -25 -30 -25 -16 0 -30 -4 -30 -10 0 -5 -8 -10 -19 -10 -11 0 -21 -9 -24
-21 -3 -12 -10 -18 -16 -14 -7 3 -8 0 -5 -9 5 -13 -4 -16 -55 -16 -56 0 -61
-2 -61 -21 0 -18 -2 -19 -15 -9 -8 7 -26 10 -40 8 -16 -3 -25 -1 -25 7 0 15
45 25 112 25 46 0 49 2 46 23 -4 28 -39 34 -66 11 -11 -9 -37 -18 -58 -20 -58
-5 -94 -15 -94 -24 0 -5 7 -7 16 -3 11 4 15 1 12 -13 -2 -13 2 -18 15 -16 9 2
17 -1 17 -5 0 -7 199 -16 395 -18 44 0 101 -2 128 -3 l47 -2 0 -365 c0 -217
-4 -365 -9 -365 -5 0 -73 20 -150 44 l-140 43 -133 -43 c-73 -24 -141 -44
-150 -44 -17 0 -18 18 -18 245 0 135 -4 245 -9 245 -4 0 -11 47 -13 104 -5 93
-25 171 -36 138 -2 -6 -12 -12 -23 -12 -13 0 -19 -6 -17 -17 2 -14 -3 -17 -19
-15 -16 2 -23 -2 -23 -13 0 -19 -23 -45 -39 -45 -6 0 -11 -4 -11 -10 0 -5 -9
-10 -20 -10 -11 0 -20 -4 -20 -10 0 -5 -13 -10 -29 -10 -20 0 -30 -6 -34 -20
-3 -12 -14 -20 -25 -20 -15 0 -22 -8 -24 -27 -2 -19 -9 -27 -28 -29 -68 -9
-92 -16 -97 -30 -3 -7 -12 -14 -20 -14 -9 0 -23 -8 -32 -18 -17 -18 -51 -37
-88 -47 -26 -7 -83 -58 -83 -74 0 -6 -12 -14 -27 -17 -40 -11 -56 -29 -44 -52
15 -28 -8 -72 -36 -72 -20 0 -23 -5 -23 -40 0 -29 -4 -40 -15 -40 -8 0 -15 7
-15 15 0 11 -11 15 -40 15 -29 0 -40 -4 -40 -15 0 -11 -12 -15 -45 -15 -39 0
-51 -5 -85 -39 -22 -21 -40 -45 -39 -52 0 -10 2 -11 6 -1 2 6 11 12 19 12 10
0 14 -12 14 -40 0 -29 -4 -40 -15 -40 -8 0 -15 -4 -15 -10 0 -5 -18 -13 -39
-16 -44 -7 -65 -42 -32 -51 13 -3 17 -11 14 -24 -6 -22 -23 -26 -23 -5 0 8 -5
18 -10 21 -12 8 -40 -12 -40 -27 0 -6 7 -5 15 2 13 11 15 8 15 -16 0 -22 3
-26 10 -14 8 13 10 12 10 -2 0 -10 5 -18 10 -18 6 0 10 -6 8 -12 -1 -7 4 -24
11 -36 7 -13 10 -26 7 -29 -3 -3 2 -12 12 -19 15 -11 12 -13 -23 -19 -22 -4
-46 -14 -52 -23 -11 -13 -13 -10 -13 22 0 30 -3 37 -17 34 -10 -1 -24 1 -30 5
-9 6 -11 3 -7 -7 3 -9 1 -16 -4 -16 -6 0 -13 8 -15 18 -3 12 -5 13 -6 2 -1
-22 17 -47 27 -35 9 13 32 18 32 7 0 -8 -28 -34 -56 -51 -16 -9 -12 -10 21 -6
31 5 23 0 -34 -20 -57 -21 -76 -24 -85 -15 -8 10 -6 11 12 5 23 -7 32 10 10
17 -9 3 -5 16 12 41 23 34 26 36 39 19 12 -15 13 -14 7 11 -8 35 11 77 26 56
7 -10 8 -9 3 6 -4 13 1 25 17 38 13 10 17 16 10 12 -7 -4 -4 11 9 34 11 23 25
41 31 41 5 0 7 4 4 9 -9 14 5 42 16 35 6 -4 8 2 3 17 -5 19 -4 21 4 9 10 -13
11 -13 12 0 2 16 5 35 8 60 2 11 5 10 12 -5 8 -17 9 -15 5 9 -2 16 2 42 8 58
l13 29 12 -23 c6 -13 9 -15 7 -6 -3 11 2 19 15 23 28 9 23 26 -6 21 -17 -3
-25 0 -25 9 0 8 6 12 14 9 12 -5 14 3 12 33 -1 21 4 49 11 63 7 14 13 36 13
50 0 20 2 22 10 10 7 -11 10 -3 11 30 1 25 2 52 3 60 2 8 3 26 4 40 2 17 5 21
10 12 10 -15 12 32 13 323 1 164 -3 240 -15 300 -9 44 -16 83 -16 88 0 4 406
6 903 5 496 -1 864 -5 817 -8z m-2815 -1202 c3 -3 2 -19 -1 -36 -6 -31 -8 -32
-63 -32 -80 0 -101 -17 -101 -81 l0 -49 66 0 65 0 -3 -37 -3 -38 -62 -3 c-57
-3 -63 -5 -64 -25 0 -12 0 -75 1 -139 1 -64 -2 -137 -5 -162 l-7 -46 -44 0
-44 0 0 184 0 183 -40 7 c-36 6 -40 9 -40 36 0 27 4 30 39 36 l38 6 5 67 c6
79 27 117 72 131 31 9 181 8 191 -2z m-1515 -275 c0 -148 4 -273 8 -279 4 -6
26 -15 50 -19 42 -7 43 -8 40 -43 l-3 -37 -57 -3 c-67 -3 -92 7 -118 51 -19
30 -20 52 -20 315 l0 282 50 0 50 0 0 -267z m1655 212 l0 -50 -40 0 c-39 0
-40 1 -43 39 -5 58 2 68 45 64 l38 -3 0 -50z m-1157 -145 c54 -33 62 -67 62
-265 l0 -175 -39 0 c-35 0 -39 3 -45 32 l-6 31 -23 -21 c-50 -48 -169 -67
-227 -37 -41 21 -60 63 -60 134 0 118 32 141 195 141 l106 0 -3 37 c-5 57 -29
65 -165 59 l-113 -5 0 34 c0 36 2 38 70 48 14 3 68 5 120 6 79 1 101 -2 128
-19z m533 4 c51 -26 59 -62 59 -264 l0 -180 -50 0 -50 0 0 173 c0 201 -4 214
-65 204 -21 -3 -62 -18 -92 -32 l-53 -26 0 -160 0 -159 -50 0 -50 0 0 225 0
225 45 0 c41 0 45 -2 45 -25 0 -31 2 -31 70 5 64 34 142 40 191 14z m629 -219
l0 -225 -45 0 -45 0 0 225 0 225 45 0 45 0 0 -225z m202 208 c8 -10 34 -51 58
-90 23 -40 47 -73 54 -73 6 1 34 40 61 88 l50 87 48 3 c26 2 47 -1 47 -5 0 -5
-20 -40 -44 -79 -77 -124 -79 -129 -61 -165 9 -17 31 -50 48 -73 28 -37 63
-93 75 -118 2 -5 -20 -8 -50 -8 -58 0 -61 3 -101 85 -22 45 -66 105 -76 105
-4 0 -34 -43 -66 -95 l-59 -95 -48 0 c-26 0 -48 2 -48 4 0 2 32 54 70 115 l70
111 -65 105 c-36 58 -65 108 -65 110 0 3 20 5 43 5 29 0 49 -6 59 -17z m408
-137 c0 -2 -8 -10 -17 -17 -16 -13 -17 -12 -4 4 13 16 21 21 21 13z m2330
-170 c0 -3 -4 -8 -10 -11 -5 -3 -10 -1 -10 4 0 6 5 11 10 11 6 0 10 -2 10 -4z
m-33 -68 c-3 -8 -6 -5 -6 6 -1 11 2 17 5 13 3 -3 4 -12 1 -19z m-97 -87 c-12
-24 -13 -31 -1 -31 5 0 11 8 14 18 2 9 4 0 3 -20 -1 -21 -1 -38 -2 -38 0 0
-10 11 -21 24 -19 22 -20 26 -7 45 19 26 28 27 14 2z m-25 -91 c3 -5 -1 -10
-9 -10 -9 0 -16 5 -16 10 0 6 4 10 9 10 6 0 13 -4 16 -10z m-1459 -109 c59
-27 121 -86 152 -145 l27 -51 3 -409 c3 -373 2 -410 -14 -427 -17 -18 -54 -19
-1228 -19 l-1211 0 -61 29 c-72 34 -126 93 -154 168 -19 50 -20 78 -20 445 0
350 2 393 17 410 15 17 67 18 1232 18 1168 0 1218 -1 1257 -19z m748 -3 c8
-30 8 -1012 0 -1032 -11 -29 -52 -16 -131 42 -123 91 -211 152 -218 152 -3 0
-3 -5 1 -12 4 -7 3 -8 -5 -4 -6 4 -9 11 -6 16 7 11 -22 33 -35 25 -6 -4 -9 -2
-8 4 2 6 -21 30 -51 53 l-53 43 1 200 c1 182 3 201 20 215 10 8 63 47 117 87
55 39 149 108 209 152 115 85 148 97 159 59z m-494 -742 c0 -2 -7 -7 -16 -10
-8 -3 -12 -2 -9 4 6 10 25 14 25 6z m-3660 -280 c0 -2 -9 -6 -20 -9 -11 -3
-20 -1 -20 4 0 5 9 9 20 9 11 0 20 -2 20 -4z m-33 -48 c-3 -8 -6 -5 -6 6 -1
11 2 17 5 13 3 -3 4 -12 1 -19z m1906 -682 c4 -10 1 -13 -9 -9 -7 3 -14 1 -14
-5 0 -5 7 -13 16 -16 9 -4 15 -9 12 -12 -3 -2 -18 1 -32 8 l-27 12 23 18 c28
21 25 21 31 4z m57 10 c0 -9 -30 -14 -35 -6 -4 6 3 10 14 10 12 0 21 -2 21 -4z
m-90 -56 c0 -5 -6 -10 -12 -11 -10 0 -10 -2 0 -6 6 -2 12 -17 12 -31 -1 -25
-2 -25 -14 -10 -11 16 -14 9 -21 -55 -4 -39 -8 -82 -7 -94 0 -19 -2 -20 -14
-8 -8 7 -14 18 -14 23 0 6 -6 12 -12 15 -10 4 -10 7 0 18 17 18 15 32 -4 25
-14 -6 -16 -1 -10 36 4 23 12 48 18 55 6 7 7 13 3 13 -5 0 0 9 10 20 19 21 65
28 65 10z m0 -250 c0 -5 -2 -10 -4 -10 -3 0 -8 5 -11 10 -3 6 -1 10 4 10 6 0
11 -4 11 -10z"/>
<path d="M5443 4613 c15 -2 39 -2 55 0 15 2 2 4 -28 4 -30 0 -43 -2 -27 -4z"/>
<path d="M5648 4613 c50 -2 134 -2 185 0 50 1 9 3 -93 3 -102 0 -143 -2 -92
-3z"/>
<path d="M5340 4270 c0 -5 7 -7 15 -4 8 4 15 8 15 10 0 2 -7 4 -15 4 -8 0 -15
-4 -15 -10z"/>
<path d="M5251 4223 c-29 -6 -51 -26 -51 -47 0 -12 -10 -16 -40 -16 -33 0 -40
-3 -40 -20 0 -13 7 -20 20 -20 11 0 20 5 20 10 0 6 7 10 16 10 9 0 28 13 42
28 15 16 35 31 45 35 9 3 17 11 17 17 0 5 -1 9 -2 9 -2 -1 -14 -4 -27 -6z"/>
<path d="M4940 4015 c-7 -8 -23 -15 -36 -15 -17 0 -24 -6 -24 -20 0 -13 -7
-20 -20 -20 -11 0 -20 -4 -20 -10 0 -5 -9 -10 -20 -10 -11 0 -20 -4 -20 -10 0
-22 48 -8 83 24 20 18 47 40 59 49 13 8 20 18 17 21 -3 4 -12 0 -19 -9z"/>
<path d="M4480 3830 c0 -5 9 -10 19 -10 11 0 23 5 26 10 4 6 -5 10 -19 10 -14
0 -26 -4 -26 -10z"/>
<path d="M4540 3825 c0 -8 5 -15 10 -15 6 0 10 7 10 15 0 8 -4 15 -10 15 -5 0
-10 -7 -10 -15z"/>
<path d="M4371 3764 c0 -11 3 -14 6 -6 3 7 2 16 -1 19 -3 4 -6 -2 -5 -13z"/>
<path d="M4540 3770 c0 -5 -6 -10 -14 -10 -7 0 -19 -6 -25 -14 -10 -12 -6 -14
23 -13 24 1 32 4 23 10 -9 7 -9 10 1 14 14 6 16 23 2 23 -5 0 -10 -4 -10 -10z"/>
<path d="M4370 3710 c0 -20 2 -22 10 -10 7 11 10 11 10 2 0 -7 5 -10 10 -7 6
3 10 1 10 -4 0 -6 10 -11 21 -11 21 0 21 1 -4 24 -14 13 -24 26 -22 28 2 2 -5
4 -15 4 -15 0 -20 -7 -20 -26z"/>
<path d="M4347 3723 c-11 -10 -8 -43 3 -43 6 0 10 11 10 25 0 26 -2 29 -13 18z"/>
<path d="M4380 3661 c0 -11 -6 -22 -12 -24 -7 -3 -3 -6 10 -6 17 -1 22 5 22
24 0 14 -4 25 -10 25 -5 0 -10 -9 -10 -19z"/>
<path d="M4310 3474 c0 -13 -3 -15 -8 -7 -6 9 -11 7 -20 -7 -11 -17 -10 -20 7
-20 19 0 39 35 27 47 -3 4 -6 -2 -6 -13z"/>
<path d="M4151 3234 c0 -11 3 -14 6 -6 3 7 2 16 -1 19 -3 4 -6 -2 -5 -13z"/>
<path d="M4248 3173 c7 -3 16 -2 19 1 4 3 -2 6 -13 5 -11 0 -14 -3 -6 -6z"/>
<path d="M4062 3129 c-8 -11 -9 -18 -3 -15 5 4 14 -1 19 -10 6 -11 11 -13 16
-5 4 6 3 11 -3 11 -5 0 -11 9 -13 20 -3 21 -3 21 -16 -1z"/>
<path d="M2025 2966 c-14 -10 -19 -25 -19 -55 2 -71 37 -87 125 -56 61 22 79
41 79 87 l0 38 -83 0 c-56 0 -90 -5 -102 -14z"/>
<path d="M2320 2111 c0 -406 0 -408 62 -474 67 -70 8 -67 1295 -67 l1153 0 0
135 c0 83 -4 135 -10 135 -5 0 -10 15 -10 34 0 19 5 38 10 41 6 4 10 82 10
203 0 169 -3 203 -19 237 -23 51 -79 101 -128 114 -26 7 -420 11 -1200 11
l-1163 0 0 -369z m940 303 c0 -16 5 -24 18 -23 10 0 12 3 5 6 -7 2 -13 10 -13
16 0 6 7 4 16 -5 13 -13 14 -20 4 -38 -7 -14 -8 -20 -1 -16 12 8 51 -28 51
-46 0 -9 4 -8 10 2 5 8 10 13 11 10 5 -29 4 -50 -4 -50 -5 0 -7 -7 -3 -15 3
-8 2 -15 -2 -15 -11 0 -32 38 -23 42 5 2 5 12 0 23 -7 19 -8 18 -8 -4 -1 -16
-5 -21 -16 -17 -20 7 -19 -4 3 -20 16 -13 16 -13 0 -15 -32 -3 -36 -4 -44 -11
-4 -5 -14 -8 -22 -8 -11 0 -13 8 -7 38 9 50 10 155 1 170 -5 8 -2 10 8 6 9 -3
16 -17 16 -30z m-50 10 c0 -3 -14 -23 -32 -45 -23 -28 -34 -36 -40 -27 -5 8
-7 4 -6 -12 2 -17 -2 -24 -10 -22 -8 1 -12 -3 -9 -10 2 -7 -4 -28 -15 -45 -20
-33 -20 -33 1 -33 38 0 88 -32 105 -67 13 -27 16 -69 16 -218 l0 -185 -50 0
-50 0 0 174 c0 145 -3 177 -16 190 -24 25 -72 19 -126 -15 l-48 -31 0 -159 0
-159 -50 0 -50 0 0 172 c0 186 -6 208 -56 208 -23 0 -74 -19 -84 -31 -3 -3
-15 -11 -27 -18 -22 -11 -23 -16 -23 -171 l0 -160 -50 0 -50 0 2 228 3 227 40
0 c36 0 40 -3 45 -28 5 -27 6 -27 25 -12 11 9 14 13 6 9 -9 -5 -12 -3 -7 5 4
6 11 9 16 6 12 -7 52 13 46 23 -5 9 80 14 123 6 19 -3 46 -18 61 -34 l27 -29
34 25 c18 13 50 29 71 35 l38 10 -22 39 c-26 45 -48 52 -48 15 0 -26 15 -34
23 -12 3 6 4 2 4 -11 -1 -22 -29 -38 -47 -27 -6 3 -23 0 -38 -8 -29 -14 -52
-12 -52 4 0 5 3 8 8 8 22 -4 42 2 37 11 -3 6 1 7 9 4 9 -3 16 -2 16 4 0 5 -7
13 -16 16 -8 3 -12 11 -9 17 4 6 0 9 -10 7 -10 -2 -20 3 -22 10 -5 12 5 15 62
16 18 1 29 6 28 14 -2 6 4 12 12 12 8 0 15 4 15 8 0 13 94 44 98 32 3 -7 9 -7
20 2 13 11 15 10 9 -4 -3 -10 -2 -18 2 -18 15 0 22 33 9 43 -8 5 -3 6 15 2 19
-4 26 -2 22 5 -3 5 -1 10 4 10 6 0 11 -3 11 -6z m167 -93 c23 -19 39 -39 36
-44 -3 -5 1 -13 8 -18 19 -12 32 -11 24 1 -4 6 1 7 11 3 16 -6 16 -7 -3 -16
-24 -11 -73 16 -73 41 0 8 -17 30 -37 49 -47 43 -23 32 34 -16z m1081 -53 l3
-68 69 0 70 0 0 -35 0 -35 -70 0 -70 0 0 -132 c1 -157 5 -165 76 -170 48 -3
49 -4 52 -37 4 -44 -8 -51 -88 -51 -122 0 -140 31 -140 240 l0 150 -40 0 c-39
0 -40 1 -40 35 0 34 1 35 40 35 l40 0 0 63 c0 35 3 66 6 70 3 3 25 5 48 4 l41
-2 3 -67z m-1578 16 c0 -8 -4 -12 -10 -9 -5 3 -10 10 -10 16 0 5 5 9 10 9 6 0
10 -7 10 -16z m-110 -18 c0 -11 -19 -15 -25 -6 -3 5 1 10 9 10 9 0 16 -2 16
-4z m626 -24 c9 -14 8 -23 -3 -37 -12 -17 -15 -18 -23 -5 -5 9 -5 19 0 24 4 4
6 15 3 22 -8 20 10 17 23 -4z m89 -12 c-4 -6 10 -10 35 -10 51 0 127 -18 158
-38 32 -21 56 -77 53 -125 -4 -76 -7 -91 -19 -95 -7 -2 -10 -7 -8 -11 7 -11
-3 -12 -144 -19 l-125 -7 2 -29 c4 -56 22 -64 151 -65 64 -1 117 -3 119 -5 1
-1 6 -16 9 -33 6 -29 4 -31 -39 -42 -76 -19 -211 -14 -259 9 -22 11 -46 17
-52 13 -6 -3 -8 -3 -4 1 3 4 -5 32 -19 63 -20 43 -26 74 -28 141 -3 106 -3
104 -13 98 -5 -3 -16 4 -26 15 -9 12 -24 18 -32 15 -8 -3 -14 -1 -14 3 0 5 5
11 10 13 7 2 7 14 1 36 -5 17 -6 32 -2 32 5 0 11 -14 15 -31 3 -17 16 -43 27
-57 14 -17 20 -20 16 -9 -4 10 0 28 8 40 13 19 14 18 9 -15 -4 -23 -2 -38 6
-43 10 -6 11 -1 6 19 -4 18 -3 25 4 21 5 -3 10 0 10 8 0 16 64 77 81 77 6 0 8
4 5 9 -3 4 6 6 21 3 21 -4 25 -2 20 12 -4 10 -1 16 9 16 8 0 12 -4 9 -10z
m-807 -14 c-2 -1 -12 -8 -23 -16 -18 -14 -19 -13 -8 1 7 9 10 19 6 23 -4 4 1
4 10 0 10 -3 17 -7 15 -8z m618 -2 c-18 -17 -26 -18 -26 -1 0 7 9 13 20 14 18
2 18 0 6 -13z m-321 -16 c-9 -6 -19 -7 -22 -4 -4 3 -1 6 6 6 7 0 9 4 6 10 -4
6 1 7 11 3 15 -6 15 -7 -1 -15z m1127 11 c37 -8 63 -22 85 -44 31 -31 33 -37
33 -105 0 -66 -2 -74 -29 -101 -29 -29 -30 -29 -150 -29 -130 0 -136 -3 -109
-53 22 -42 38 -46 161 -47 110 0 117 -1 119 -20 0 -11 1 -26 2 -32 2 -22 -65
-37 -164 -37 -155 -1 -208 36 -230 159 -21 116 10 238 71 283 49 35 124 44
211 26z m-817 -59 c9 0 12 -6 8 -16 -6 -15 -8 -15 -20 2 -7 10 -12 27 -12 38
2 19 2 19 6 -1 2 -13 11 -23 18 -23z m-15 -92 c0 -26 -13 -16 -17 13 -2 12 1
18 7 14 5 -3 10 -16 10 -27z m-298 -13 c-6 -34 -13 -32 -10 4 1 16 5 28 9 26
3 -3 4 -16 1 -30z m-25 -37 c-2 -13 -4 -3 -4 22 0 25 2 35 4 23 2 -13 2 -33 0
-45z m353 36 c0 -8 -4 -12 -10 -9 -5 3 -10 10 -10 16 0 5 5 9 10 9 6 0 10 -7
10 -16z m480 -24 c0 -5 -5 -10 -11 -10 -5 0 -7 5 -4 10 3 6 8 10 11 10 2 0 4
-4 4 -10z m-493 -22 c-3 -8 -6 -5 -6 6 -1 11 2 17 5 13 3 -3 4 -12 1 -19z
m448 -57 c3 -5 2 -12 -3 -15 -5 -3 -9 1 -9 9 0 17 3 19 12 6z m1064 -65 c-3
-3 -11 5 -18 17 -13 21 -12 21 5 5 10 -10 16 -20 13 -22z"/>
<path d="M3261 2307 c1 -23 3 -26 6 -10 2 12 12 23 21 25 13 3 12 5 -5 10 -21
5 -23 3 -22 -25z"/>
<path d="M3010 2336 c0 -10 28 -13 41 -5 10 6 7 9 -13 9 -16 0 -28 -2 -28 -4z"/>
<path d="M3050 2286 c0 -17 26 -40 34 -28 3 5 -4 16 -15 25 -15 13 -19 14 -19
3z"/>
<path d="M3375 2230 c-3 -6 1 -7 9 -4 18 7 21 14 7 14 -6 0 -13 -4 -16 -10z"/>
<path d="M3455 2115 c-14 -13 -25 -33 -25 -44 0 -11 -3 -26 -6 -35 -5 -14 6
-16 88 -16 103 0 118 7 118 52 0 46 -31 68 -95 68 -46 0 -60 -4 -80 -25z m145
5 c11 -7 11 -10 2 -10 -7 0 -11 -4 -8 -8 2 -4 -4 -8 -14 -8 -10 0 -16 4 -14 8
8 12 -10 10 -23 -3 -8 -8 -13 -8 -18 0 -3 6 0 13 7 15 7 3 20 7 28 9 22 8 24
8 40 -3z"/>
<path d="M3959 2127 c-23 -17 -39 -52 -39 -81 l0 -26 93 0 c102 0 117 7 117
52 0 46 -31 68 -97 68 -32 0 -65 -6 -74 -13z"/>
<path d="M5315 2368 c-44 -32 -120 -87 -168 -121 l-88 -62 5 -130 c6 -158 6
-156 20 -174 8 -11 8 -13 -1 -7 -7 4 -13 3 -13 -2 0 -9 16 -19 30 -20 3 0 25
-18 50 -40 24 -23 46 -39 49 -37 2 3 9 -1 15 -8 17 -21 177 -139 182 -135 5 6
8 788 3 792 -2 1 -40 -24 -84 -56z"/>
<path d="M3121 695 c-2 -33 -4 -36 -11 -20 -7 14 -8 8 -3 -20 3 -22 7 -42 9
-44 11 -12 15 13 11 65 -2 46 -4 50 -6 19z"/>
<path d="M3105 587 c-4 -10 -5 -21 -1 -24 10 -10 18 4 13 24 -4 17 -4 17 -12
0z"/>
<path d="M1290 3129 c-78 -35 -80 -39 -80 -159 l0 -107 51 -11 c145 -34 179
-6 179 142 0 95 -11 129 -47 145 -33 15 -51 14 -103 -10z"/>
<path d="M1632 2035 c0 -16 2 -22 5 -12 2 9 2 23 0 30 -3 6 -5 -1 -5 -18z"/>
<path d="M1520 1960 c0 -5 5 -10 10 -10 6 0 10 5 10 10 0 6 -4 10 -10 10 -5 0
-10 -4 -10 -10z"/>
<path d="M1200 1800 c0 -17 7 -20 40 -20 33 0 40 3 40 20 0 17 -7 20 -40 20
-33 0 -40 -3 -40 -20z"/>
<path d="M459 721 c-20 -16 -22 -23 -14 -47 8 -21 18 -30 38 -32 37 -4 57 13
57 49 0 22 -6 32 -26 39 -32 13 -28 13 -55 -9z"/>
<path d="M920 720 c-27 -27 -25 -44 7 -69 23 -19 29 -20 47 -8 28 19 33 67 10
84 -25 18 -41 16 -64 -7z"/>
<path d="M1364 715 c-34 -52 31 -111 76 -70 22 20 26 65 8 83 -21 21 -66 14
-84 -13z"/>
<path d="M1824 715 c-32 -49 23 -104 75 -75 24 12 29 68 9 88 -21 21 -66 14
-84 -13z"/>
<path d="M1343 601 c-37 -23 -39 -29 -20 -55 10 -14 26 -16 92 -14 72 3 80 5
83 24 7 52 -96 82 -155 45z"/>
<path d="M1807 604 c-22 -12 -28 -21 -25 -42 3 -25 6 -27 42 -24 21 2 59 13
85 24 l46 20 -24 19 c-28 23 -85 24 -124 3z"/>
<path d="M879 584 c-33 -35 -17 -44 77 -44 75 0 84 2 84 18 0 32 -31 50 -87
50 -41 -1 -57 -5 -74 -24z"/>
<path d="M1720 496 c0 -2 7 -7 16 -10 8 -3 12 -2 9 4 -6 10 -25 14 -25 6z"/>
<path d="M1352 435 c-14 -16 -2 -21 14 -6 5 5 20 11 34 14 22 4 22 4 -5 5 -16
1 -36 -5 -43 -13z"/>
<path d="M1440 440 c-24 -15 -7 -18 20 -3 14 7 18 13 10 13 -8 0 -22 -4 -30
-10z"/>
<path d="M1242 400 c0 -14 2 -19 5 -12 2 6 2 18 0 25 -3 6 -5 1 -5 -13z"/>
<path d="M1370 410 c0 -5 5 -10 11 -10 5 0 7 5 4 10 -3 6 -8 10 -11 10 -2 0
-4 -4 -4 -10z"/>
<path d="M1260 390 c0 -8 5 -22 10 -30 9 -13 10 -13 10 0 0 8 -5 22 -10 30 -9
13 -10 13 -10 0z"/>
<path d="M1251 324 c0 -11 3 -14 6 -6 3 7 2 16 -1 19 -3 4 -6 -2 -5 -13z"/>
<path d="M1270 252 c0 -15 18 -34 29 -31 7 3 3 11 -9 21 -11 10 -20 14 -20 10z"/>
<path d="M1340 230 c-13 -8 -12 -10 3 -10 9 0 17 5 17 10 0 12 -1 12 -20 0z"/>
<path d="M1483 223 c9 -2 23 -2 30 0 6 3 -1 5 -18 5 -16 0 -22 -2 -12 -5z"/>
</g>
</svg>
