<svg id="Слой_1" data-name="Слой 1" xmlns="http://www.w3.org/2000/svg" width="16.93mm" height="16.93mm" viewBox="0 0 48 48"><title>vklogo</title><path d="M0,23C0,12.18,0,6.75,3.37,3.37S12.18,0,23,0H25C35.82,0,41.25,0,44.63,3.37S48,12.18,48,23V25c0,10.86,0,16.29-3.37,19.67S35.82,48,25,48H23C12.18,48,6.75,48,3.37,44.63S0,35.82,0,25Z" transform="translate(0 0)" style="fill:#454545"/><path d="M25.54,34.58c-10.94,0-17.18-7.5-17.44-20h5.48c.18,9.16,4.22,13,7.42,13.84V14.6h5.16v7.9c3.16-.34,6.48-3.94,7.6-7.9h5.16a15.24,15.24,0,0,1-7,10,15.79,15.79,0,0,1,8.22,10H34.44a9.87,9.87,0,0,0-8.28-7.14v7.14Z" transform="translate(0 0)" style="fill:#fff"/></svg>