<svg id="Слой_1" data-name="Слой 1" xmlns="http://www.w3.org/2000/svg" width="89.22mm" height="62.45mm" viewBox="0 0 252.9 177.03"><title>youtubelogo</title><path d="M249,67a31.69,31.69,0,0,0-22.36-22.36c-19.72-5.29-98.8-5.29-98.8-5.29s-79.09,0-98.81,5.29A31.69,31.69,0,0,0,6.69,67c-5.28,19.72-5.28,60.87-5.28,60.87s0,41.15,5.28,60.87a31.69,31.69,0,0,0,22.36,22.36c19.72,5.28,98.81,5.28,98.81,5.28s79.08,0,98.8-5.28A31.69,31.69,0,0,0,249,188.73c5.29-19.72,5.29-60.87,5.29-60.87S254.31,86.71,249,67Z" transform="translate(-1.41 -39.34)" style="fill:#454545"/><polygon points="101.16 126.45 166.86 88.52 101.16 50.58 101.16 126.45" style="fill:#fff"/></svg>